<svg id="Layer_1-2" xmlns="http://www.w3.org/2000/svg" width="1460.201" height="541.449" viewBox="0 0 1460.201 541.449">
  <path id="Path_1" data-name="Path 1" d="M39.747,290.608,11.564,214.562v76.047H0V198.221H16.854L44.909,274.14l28.183-75.918h16.34v92.387H77.974V214.562L49.663,290.608H39.747Zm61.12-18.139c0-13.385,10.429-18.91,25.485-21.994l16.34-3.341v-2.827c0-7.71-4.24-12.1-13.256-12.1-8.5,0-13.513,3.983-15.569,11.457l-10.943-2.827c3.212-10.943,13.128-18.781,26.9-18.781,15.055,0,24.307,7.324,24.307,21.737V276.6c0,4.369,2.7,5.782,7.2,4.754v9.273c-10.3,1.285-16.212-1.156-17.625-7.581-4.112,5.268-11.586,8.759-20.709,8.759-12.228,0-22.122-7.217-22.122-19.3Zm41.825-16.34-13.128,2.827c-10.3,2.056-17.24,4.883-17.24,13,0,6.553,4.754,10.429,12.1,10.429,9.915,0,18.267-6.039,18.267-14.67Zm62.791-21.373a26.442,26.442,0,0,0-5.654-.514c-9.787,0-17.625,7.71-17.625,19.552v36.792H170.618V223.3H182.2v11.457a19.729,19.729,0,0,1,18.653-11.971,43.221,43.221,0,0,1,4.626.257v11.714Zm21.094,19.938,29.853-31.4h14.413l-26.256,26.513,28.44,40.775H259.514l-23.15-32.423-9.787,9.915v22.508H214.991V198.2h11.586v56.473Zm46.579,2.334c0-20.066,12.742-34.993,31.01-34.993s28.7,14.284,28.7,32.937v3.855H284.228c.642,14.156,8.738,23.15,20.452,23.15,9.016,0,15.441-4.883,17.5-12.871l10.172,3.6c-4.112,11.971-14.284,19.3-27.669,19.3-18.653,0-31.524-14.284-31.524-34.993Zm11.714-7.089h36.278c-.257-9.53-5.4-18.011-17.111-18.011C294.25,231.93,286.926,238.483,284.87,249.94Zm60.97-16.726H335.411V223.3h10.429V203.618H357.3V223.3H372.61v9.915H357.3V272.7c0,7.067,3.469,8.374,9.4,8.374a28.415,28.415,0,0,0,7.324-.771v9.915a47.567,47.567,0,0,1-10.172,1.028c-11.457,0-18.01-3.855-18.01-16.726V233.236Zm38.227-34.993h12.614v13.385H384.067Zm12.078,92.387H384.56V223.321h11.586Zm16.083-67.288h11.586v9.144a23.974,23.974,0,0,1,20.066-10.429c14.284,0,22.379,9.915,22.379,24.178v44.395H454.675V249.319c0-9.4-3.983-16.469-14.027-16.469-8.374,0-16.854,6.425-16.854,17.625v40.133H412.207V223.321Zm95.085,91.852c-14.8,0-25.613-6.81-29.339-19.167l10.815-4.112c2.184,8.63,9.144,13.642,18.524,13.642,11.843,0,19.681-6.039,19.681-20.066v-7.6c-3.6,6.553-11.2,11.2-20.58,11.2-18.4,0-29.211-15.184-29.211-33.58s10.815-33.451,29.211-33.451c9.273,0,16.983,4.626,20.58,11.2v-9.915h11.586v61.249c0,19.681-13,30.624-31.267,30.624Zm1.156-82.985c-12.228,0-19.681,9.144-19.681,23.279s7.453,23.407,19.681,23.407c9.658,0,18.653-7.2,18.653-21.994v-2.441c0-15.055-9.016-22.251-18.653-22.251Zm209.337,58.422-28.183-76.047v76.047H678.039V198.221h16.854l28.054,75.918,28.183-75.918h16.34v92.387H756.013V214.562L727.7,290.608h-9.915Zm60.242-33.58c0-20.066,12.742-34.993,31.01-34.993s28.7,14.284,28.7,32.937v3.855H789.122c.642,14.156,8.759,23.15,20.452,23.15,9.016,0,15.441-4.883,17.5-12.871l10.172,3.6c-4.112,11.971-14.284,19.3-27.669,19.3-18.653,0-31.524-14.284-31.524-34.993Zm11.714-7.089h36.278c-.257-9.53-5.4-18.011-17.111-18.011C799.144,231.93,791.82,238.483,789.764,249.94Zm56.066,7.089c0-19.167,10.686-34.993,29.339-34.993,9.4,0,16.854,4.5,20.837,11.072V198.243h11.586V290.63H896.007v-9.787c-3.983,6.682-11.457,11.2-20.837,11.2-18.653,0-29.339-15.955-29.339-34.993Zm31.4-24.842c-12.614,0-19.681,10.3-19.681,24.821s7.067,24.842,19.681,24.842c9.53,0,19.039-6.939,19.039-22.379v-4.754c0-15.7-9.53-22.508-19.039-22.508Zm45.808-33.965h12.614v13.385H923.034Zm12.078,92.387H923.526V223.321h11.586Zm10.815-18.139c0-13.385,10.429-18.91,25.463-21.994l16.34-3.341v-2.827c0-7.71-4.24-12.1-13.256-12.1-8.481,0-13.513,3.983-15.569,11.457l-10.943-2.827c3.212-10.943,13.128-18.781,26.9-18.781,15.055,0,24.307,7.324,24.307,21.737V276.6c0,4.369,2.7,5.782,7.2,4.754v9.273c-10.3,1.285-16.212-1.156-17.625-7.581-4.112,5.268-11.586,8.759-20.709,8.759-12.228,0-22.122-7.217-22.122-19.3Zm41.825-16.34-13.128,2.827c-10.3,2.056-17.24,4.883-17.24,13,0,6.553,4.754,10.429,12.1,10.429,9.915,0,18.268-6.039,18.268-14.67Zm93.522-57.908,35.635,92.387h-12.485l-9.4-24.307h-41.439l-9.273,24.307h-12.357l35.635-92.387h13.642Zm-23.536,57.265h33.194l-16.726-43.367Zm78.488,35.122H1124.64V198.221h11.586Zm27.647,0h-11.586V198.221h11.586Zm15.569-92.387h12.614v13.385h-12.614Zm12.1,92.387h-11.586V223.321h11.586Zm10.815-18.139c0-13.385,10.429-18.91,25.463-21.994l16.34-3.341v-2.827c0-7.71-4.24-12.1-13.256-12.1-8.481,0-13.513,3.983-15.569,11.457l-10.943-2.827c3.212-10.943,13.128-18.781,26.9-18.781,15.055,0,24.307,7.324,24.307,21.737V276.6c0,4.369,2.7,5.782,7.2,4.754v9.273c-10.3,1.285-16.212-1.156-17.625-7.581-4.112,5.268-11.586,8.759-20.709,8.759-12.228,0-22.122-7.217-22.122-19.3Zm41.8-16.34-13.128,2.827c-10.3,2.056-17.24,4.883-17.24,13,0,6.553,4.754,10.429,12.1,10.429,9.915,0,18.267-6.039,18.267-14.67Zm27.926-32.809h11.586v9.144a23.973,23.973,0,0,1,20.066-10.429c14.284,0,22.379,9.915,22.379,24.178v44.395h-11.586V249.319c0-9.4-3.983-16.469-14.027-16.469-8.352,0-16.854,6.425-16.854,17.625v40.133h-11.586V223.321Zm94.978,58.529c9.273,0,14.8-5.911,16.725-14.284l10.3,4.754c-3.212,11.2-13,19.681-27.026,19.681-18.782,0-31.781-14.284-31.781-34.993s13-34.993,31.781-34.993c14.027,0,23.536,8.1,26.769,19.3l-10.044,5.011c-1.927-8.224-7.453-14.284-16.725-14.284-11.971,0-20.2,9.53-20.2,24.949s8.224,24.842,20.2,24.842Zm33.43-24.821c0-20.066,12.742-34.993,31.01-34.993s28.7,14.284,28.7,32.937v3.855h-48.635c.642,14.156,8.759,23.15,20.452,23.15,9.016,0,15.441-4.883,17.5-12.871l10.172,3.6c-4.112,11.971-14.284,19.3-27.669,19.3-18.653,0-31.524-14.284-31.524-34.993Zm11.714-7.089h36.278c-.257-9.53-5.4-18.011-17.111-18.011C1421.589,231.93,1414.265,238.483,1412.209,249.94Zm-767.278-8.78h-31.16V209.85H602.849v31.31h-31.16v10.9h31.16v31.16h10.922V252.06h31.16Z" transform="translate(0 226.256)" fill="#fff"/>
  <path id="Path_2" data-name="Path 2" d="M842.455,366.421,677.833,0H583.69l91.916,218.91H570.8L537.24,298.3H708.458l28.526,68.187Z" transform="translate(613.293)" fill="#ffa400"/>
  <rect id="Rectangle_1" data-name="Rectangle 1" width="108.877" height="366.485" transform="translate(384.004)" fill="#ffa400"/>
  <rect id="Rectangle_2" data-name="Rectangle 2" width="108.877" height="366.485" transform="translate(905.389)" fill="#ffa400"/>
  <path id="Path_3" data-name="Path 3" d="M639.59,0,474.99,366.485H580.119L733.391,0Z" transform="translate(542.23)" fill="#fff"/>
  <path id="Path_4" data-name="Path 4" d="M498.6,0,334,366.485H439.129L592.422,0Z" transform="translate(381.281)" fill="#fff"/>
  <path id="Path_5" data-name="Path 5" d="M352.337,0H243.46V366.485H352.337V163.337l84.977,203.148,105.129-.064L377.843,0Z" transform="translate(277.926)" fill="#ffa400"/>
  <path id="Path_6" data-name="Path 6" d="M255.14,0,90.54,366.485H195.669L348.962,0Z" transform="translate(103.357)" fill="#fff"/>
  <path id="Path_7" data-name="Path 7" d="M108.877,0H0V366.485H108.877V163.337l84.977,203.148,105.129-.064L134.383,0Z" fill="#ffa400"/>
</svg>
